HIERARCHY
ROOT root
{
	OFFSET	0	13.1	24.9
	CHANNELS 6  Xposition Yposition Zposition Xrotation Yrotation Zrotation
	JOINT spine_1
	{
		OFFSET	0	9.99999	0
		CHANNELS 3  Xrotation Yrotation Zrotation
		JOINT spine_2
		{
			OFFSET	0	112	-10
			CHANNELS 3  Xrotation Yrotation Zrotation
			JOINT spine_3
			{
				OFFSET	0	206.5	19.3
				CHANNELS 3  Xrotation Yrotation Zrotation
				JOINT spine_4
				{
					OFFSET	0	110.4	14.6
					CHANNELS 3  Xrotation Yrotation Zrotation
					JOINT neck_1
					{
						OFFSET	0	71.8	-50.3
						CHANNELS 3  Xrotation Yrotation Zrotation
						JOINT neck_2
						{
							OFFSET	0	86.2	-25.8
							CHANNELS 3  Xrotation Yrotation Zrotation
							JOINT head_ee
							{
								OFFSET	0	179.8	-8.7
								CHANNELS 3  Xrotation Yrotation Zrotation
								End Site
								{
									OFFSET	1	0	0
								}
							}
						}
					}
					JOINT left_clavicle
					{
						OFFSET	-43.2	22.4	-70.8
						CHANNELS 3  Xrotation Yrotation Zrotation
						JOINT left_shoulder
						{
							OFFSET	-93.9	-5.79999	48.7
							CHANNELS 3  Xrotation Yrotation Zrotation
							JOINT left_elbow
							{
								OFFSET	-291.4	-30.8	15.2
								CHANNELS 3  Xrotation Yrotation Zrotation
								JOINT left_lowarm_twist
								{
									OFFSET	-110.7	-3.89999	13.6
									CHANNELS 3  Xrotation Yrotation Zrotation
									JOINT left_hand
									{
										OFFSET	-110.7	-3.89999	13.6
										CHANNELS 3  Xrotation Yrotation Zrotation
										JOINT left_ee
										{
											OFFSET	-80.8	-5.10001	12.1
											CHANNELS 3  Xrotation Yrotation Zrotation
											End Site
											{
												OFFSET	1	0	0
											}
										}
									}
								}
							}
						}
					}
					JOINT right_clavicle
					{
						OFFSET	43.2	22.4	-70.8
						CHANNELS 3  Xrotation Yrotation Zrotation
						JOINT right_shoulder
						{
							OFFSET	93.9	-5.79999	48.7
							CHANNELS 3  Xrotation Yrotation Zrotation
							JOINT right_elbow
							{
								OFFSET	291.4	-30.8	15.2
								CHANNELS 3  Xrotation Yrotation Zrotation
								JOINT right_lowarm_twist
								{
									OFFSET	110.7	-3.89999	13.6
									CHANNELS 3  Xrotation Yrotation Zrotation
									JOINT right_hand
									{
										OFFSET	110.7	-3.89999	13.6
										CHANNELS 3  Xrotation Yrotation Zrotation
										JOINT right_ee
										{
											OFFSET	80.8	-5.10001	12.1
											CHANNELS 3  Xrotation Yrotation Zrotation
											End Site
											{
												OFFSET	1	0	0
											}
										}
									}
								}
							}
						}
					}
				}
			}
		}
	}
	JOINT left_hip
	{
		OFFSET	-82.8	-127.5	0.300001
		CHANNELS 3  Xrotation Yrotation Zrotation
		JOINT left_knee
		{
			OFFSET	-28.2	-396.7	2.2
			CHANNELS 3  Xrotation Yrotation Zrotation
			JOINT left_ankle
			{
				OFFSET	-11.7	-411.3	35.4
				CHANNELS 3  Xrotation Yrotation Zrotation
				JOINT left_toes
				{
					OFFSET	0	-60	-88.6
					CHANNELS 3  Xrotation Yrotation Zrotation
					JOINT left_foot_ee
					{
						OFFSET	-22.5	-16.5	-42.2
						CHANNELS 3  Xrotation Yrotation Zrotation
						End Site
						{
							OFFSET	1	0	0
						}
					}
				}
			}
		}
	}
	JOINT right_hip
	{
		OFFSET	82.8	-127.5	0.300001
		CHANNELS 3  Xrotation Yrotation Zrotation
		JOINT right_knee
		{
			OFFSET	28.2	-396.7	2.2
			CHANNELS 3  Xrotation Yrotation Zrotation
			JOINT right_ankle
			{
				OFFSET	11.7	-411.3	35.4
				CHANNELS 3  Xrotation Yrotation Zrotation
				JOINT right_toes
				{
					OFFSET	0	-60	-88.6
					CHANNELS 3  Xrotation Yrotation Zrotation
					JOINT right_foot_ee
					{
						OFFSET	22.5	-16.5	-42.2
						CHANNELS 3  Xrotation Yrotation Zrotation
						End Site
						{
							OFFSET	1	0	0
						}
					}
				}
			}
		}
	}
}
MOTION
Frames: 12
Frame Time: 0.02
503.034 765.677 -1306.06 179.431 -46.6333 175.61 -6.46142 0.51875 1.13121 -6.46082 0.445722 1.16192 -6.44975 0.0522607 1.24337 -6.45183 0.247958 1.21952 0.843659 6.57435 -1.99146 1.01725 13.2942 -1.5512 -0.0 0.0 -0.0 9.74236 14.0759 17.9034 -25.3047 -36.7744 51.6699 0.185978 -5.26383 0.00854908 -46.6838 -3.68836 4.49832 7.41438 20.8397 71.9757 -0.0 0.0 -0.0 9.59846 21.7928 -18.3655 -9.91256 42.528 -27.6946 1.08563 28.2701 -0.273404 -33.8022 2.31742 -3.58094 -12.0714 -32.3954 68.4219 0.0 0.0 0.0 17.0013 -5.13866 8.66066 -21.1448 0.280276 3.21434 13.45 24.3585 -1.97092 15.615 -0.0 -0.0 -0.0 0.0 -0.0 11.4513 13.9419 9.93899 -32.1919 0.0461113 -4.8757 9.73007 -13.8676 1.39185 1.90633 -0.0 -0.0 0.0 0.0 0.0 
519.853 749.427 -1302.67 177.339 -48.3558 174.653 -6.49212 0.486585 1.03259 -6.49163 0.419897 1.06145 -6.48214 0.0591461 1.13995 -6.48387 0.238426 1.1163 2.48488 7.08606 -2.82593 2.75651 14.7903 -2.62058 -0.0 0.0 -0.0 9.7112 15.234 17.6973 -25.2828 -36.2698 52.4033 0.191622 -5.42262 0.00907458 -44.7316 -3.46783 4.3794 7.45468 20.3873 72.8735 -0.0 0.0 -0.0 8.64281 19.3458 -16.4334 -11.0353 43.0972 -27.3891 1.28219 32.4206 -0.372775 -32.6063 2.20133 -3.48068 -12.0909 -32.6429 67.7492 0.0 0.0 0.0 15.1058 0.850461 6.65948 -21.7267 0.271126 3.30317 8.78821 14.3809 -1.2622 13.5879 -0.0 -0.0 -0.0 0.0 -0.0 11.922 15.7425 9.65181 -31.7564 0.027207 -4.81155 -8.97335 -13.5301 -1.34068 2.75711 -0.0 -0.0 0.0 0.0 0.0 
532.159 753.108 -1297.42 177.402 -49.2249 175.506 -6.56837 0.417669 0.784191 -6.5681 0.366925 0.809177 -6.56189 0.088228 0.884086 -6.56291 0.226741 0.85906 4.32841 7.37533 -3.67991 4.71855 15.901 -3.80641 -0.0 0.0 -0.0 9.6576 16.1773 17.477 -24.8685 -35.8094 53.7551 0.179904 -5.09283 0.00800084 -42.4642 -3.21696 4.23197 7.44711 20.8895 72.7947 -0.0 0.0 -0.0 8.40066 15.7478 -16.1312 -12.5534 44.3096 -27.0652 1.45263 35.7362 -0.468315 -33.6168 2.29929 -3.56556 -12.3453 -33.7831 67.8329 0.0 0.0 0.0 12.9278 4.13128 5.59188 -20.24 0.292708 3.07607 1.5011 10.381 -0.219002 12.5281 -0.0 -0.0 -0.0 0.0 -0.0 12.4802 17.8338 9.26149 -38.4323 0.370058 -5.77757 -14.3376 -14.2178 -2.15782 4.85907 -0.0 -0.0 0.0 0.0 0.0 
544.781 755.23 -1289.5 175.576 -49.4571 175.273 -6.6407 0.225262 0.365515 -6.64064 0.201547 0.379108 -6.63908 0.0688333 0.423799 -6.6393 0.1349 0.40761 4.20002 7.20206 -4.0329 4.60057 15.914 -4.20156 -0.0 0.0 -0.0 9.50835 16.353 17.1994 -23.4571 -35.3279 54.9245 0.179505 -5.08158 0.00796535 -37.1467 -2.65295 3.84829 7.37629 18.7074 70.5661 -0.0 0.0 -0.0 8.61575 14.329 -16.6746 -14.4219 46.202 -26.486 1.33933 33.5611 -0.403887 -34.4113 2.37736 -3.63107 -12.3664 -33.7537 68.3934 0.0 0.0 0.0 11.083 5.9993 5.26889 -18.094 0.313454 2.74747 -7.12592 10.0885 1.05816 11.4411 -0.0 -0.0 -0.0 0.0 -0.0 12.3455 20.5452 7.4922 -42.1165 0.606878 -6.292 -19.4267 -15.101 -2.93815 6.85375 -0.0 -0.0 0.0 0.0 0.0 
551.349 754.678 -1290.06 174.954 -49.9488 174.107 -6.22456 0.0210294 0.361266 -6.22448 -0.00200138 0.361872 -6.22436 -0.115868 0.342826 -6.22452 -0.0602711 0.356823 1.2306 6.56177 -3.72259 1.49553 14.6839 -3.49748 -0.0 0.0 -0.0 9.45754 16.5556 17.0861 -21.5114 -35.2801 55.8614 0.187611 -5.30977 0.00869949 -30.619 -2.01314 3.30881 6.94136 14.8594 61.7621 -0.0 0.0 -0.0 8.67215 12.4007 -16.8791 -14.8502 49.9243 -26.1017 1.23594 31.4757 -0.348302 -35.5458 2.49039 -3.72275 -12.3953 -33.9382 68.1376 0.0 0.0 0.0 9.30177 6.66486 6.42744 -15.4607 0.322076 2.34357 -14.4645 9.38493 2.16732 10.6953 -0.0 -0.0 -0.0 0.0 -0.0 13.5214 23.7123 2.91394 -45.751 0.872572 -6.78385 -23.8289 -17.9517 -3.63208 9.11865 -0.0 -0.0 0.0 0.0 0.0 
564.544 756.168 -1284.51 173.881 -51.3563 172.627 -6.35585 -0.220813 0.352774 -6.35582 -0.242813 0.338008 -6.35731 -0.337478 0.243551 -6.35727 -0.294778 0.293792 -3.07399 5.9348 -1.84348 -2.9917 12.2234 -1.05548 -0.0 0.0 -0.0 9.27112 17.8812 16.5956 -19.7418 -35.8149 56.4507 0.158904 -4.50095 0.00624471 -25.6144 -1.56674 2.84826 6.3749 9.95063 52.8598 -0.0 0.0 -0.0 8.94253 12.0085 -17.4805 -14.5776 52.7087 -26.3616 1.00198 26.3971 -0.234991 -36.4838 2.58521 -3.79685 -12.3087 -33.7116 67.4275 0.0 0.0 0.0 6.87737 4.912 8.2032 -11.4726 0.299789 1.7322 -20.1128 8.24977 3.02385 10.1557 -0.0 -0.0 -0.0 0.0 -0.0 16.0197 24.2567 -2.99988 -50.6745 1.28142 -7.42182 -24.286 -22.0578 -3.75551 11.4511 -0.0 -0.0 0.0 0.0 0.0 
575.248 760.019 -1279.21 173.679 -51.9524 172.543 -6.19442 -0.144217 0.286578 -6.19439 -0.16216 0.27682 -6.19518 -0.240983 0.211784 -6.19519 -0.204511 0.247185 -3.88216 5.10832 0.158135 -3.85458 9.2116 0.965056 -0.0 0.0 -0.0 8.98227 18.332 16.0628 -17.702 -36.198 56.5018 0.15921 -4.50959 0.00626878 -21.0101 -1.19311 2.3919 6.36679 4.97619 50.6713 -0.0 0.0 -0.0 8.6127 12.236 -16.7562 -16.3945 54.2084 -26.2985 0.917996 24.4533 -0.198929 -35.2561 2.46135 -3.69955 -12.1931 -33.6852 65.4273 0.0 0.0 0.0 5.04573 3.20128 7.58132 -13.6395 0.317179 2.06421 -18.8947 7.36364 2.84009 9.73953 -0.0 -0.0 -0.0 0.0 -0.0 18.4301 25.0043 -4.42214 -54.3954 1.62613 -7.87974 -22.2911 -21.2344 -3.43504 12.5918 -0.0 -0.0 0.0 0.0 0.0 
591.737 744.846 -1268.78 172.467 -53.1779 172.754 -6.18395 0.0358319 0.32589 -6.1839 0.0150221 0.32751 -6.18369 -0.0886642 0.315637 -6.18383 -0.0377027 0.325679 -3.3485 4.81589 2.37633 -3.32162 6.93001 3.18206 -0.0 0.0 -0.0 8.5662 18.908 15.3191 -15.9974 -36.2976 56.1375 0.207894 -5.88 0.010677 -17.9906 -0.968584 2.07711 6.19293 0.559119 46.74 -0.0 0.0 -0.0 8.12571 12.4071 -15.6956 -17.5028 55.2997 -27.2979 0.843333 22.6732 -0.169078 -33.0714 2.24623 -3.51996 -12.0178 -33.147 64.4851 0.0 0.0 0.0 2.83234 -0.742525 6.10408 -16.6686 0.320426 2.52889 -16.1762 8.36154 2.42702 9.40146 -0.0 -0.0 -0.0 0.0 -0.0 21.335 26.2924 -5.85468 -57.6994 1.95675 -8.26713 -23.2058 -20.0139 -3.5603 13.3864 -0.0 -0.0 0.0 0.0 0.0 
597.692 757.642 -1258.5 172.414 -54.4015 172.617 -6.10834 0.0496377 0.276387 -6.1083 0.0319499 0.278985 -6.10805 -0.0569812 0.274967 -6.10816 -0.0128403 0.280515 -2.41095 4.45858 1.47982 -2.38724 6.90844 2.15911 -0.0 0.0 -0.0 7.96666 19.7732 14.2722 -13.3593 -36.6508 56.8453 0.353792 -9.94079 0.0307687 -15.838 -0.818837 1.84576 6.20375 -2.82414 45.0577 -0.0 0.0 -0.0 7.61926 12.5797 -14.5966 -19.0759 56.9965 -28.833 0.778873 21.0981 -0.145048 -31.8144 2.12563 -3.41297 -11.9034 -32.5974 64.5628 0.0 0.0 0.0 2.20552 -4.98306 4.97235 -17.2442 0.318265 2.61717 -14.8809 8.85217 2.23037 8.47163 -0.0 -0.0 -0.0 0.0 -0.0 24.7894 27.7668 -8.44799 -61.6969 2.38598 -8.7097 -24.3435 -18.2962 -3.71423 14.8666 -0.0 -0.0 0.0 0.0 0.0 
613.648 745.568 -1252.8 173.127 -56.0443 174.447 -5.96482 0.0541079 0.145623 -5.96481 0.0447318 0.148771 -5.96466 -0.00369406 0.155306 -5.9647 0.02088 0.153941 -1.02053 4.6117 1.44373 -0.989853 7.11332 2.08153 -0.0 0.0 -0.0 7.45745 20.9762 13.3636 -10.4599 -36.8394 56.9262 0.459527 -12.8243 0.051643 -15.0591 -0.766823 1.76071 6.21516 -7.05498 42.7477 -0.0 0.0 -0.0 6.88741 12.7344 -13.0194 -20.7491 57.5966 -30.4357 0.776078 21.029 -0.144043 -30.0354 1.95903 -3.25712 -11.7606 -31.7413 65.1966 0.0 0.0 0.0 1.62549 -10.0508 4.87477 -17.3782 0.317635 2.63772 -13.0574 9.56366 1.95393 7.14096 -0.0 -0.0 -0.0 0.0 -0.0 30.0742 28.7274 -12.8962 -67.2703 3.03402 -9.27506 -23.819 -15.8907 -3.61162 16.8061 -0.0 -0.0 0.0 0.0 0.0 
622.913 745.143 -1242.66 172.884 -56.6768 175.595 -5.63704 -0.10424 -0.0978311 -5.63705 -0.0978033 -0.104266 -5.63685 -0.0613167 -0.12914 -5.63687 -0.0809424 -0.117835 1.3892 5.01266 1.20021 1.43777 7.84316 1.75714 -0.0 0.0 -0.0 6.73082 21.1259 12.2564 -7.79689 -36.603 57.9023 0.57358 -15.8618 0.0799069 -13.0746 -0.639571 1.54091 6.41594 -9.21658 43.2572 -0.0 0.0 -0.0 6.91658 12.6252 -13.0875 -23.9377 57.7538 -30.9688 0.74095 20.1554 -0.131688 -29.741 1.93193 -3.23085 -11.6803 -30.9546 66.6201 0.0 0.0 0.0 1.25142 -13.6359 5.46817 -16.5887 0.320656 2.51663 -13.6275 10.745 2.04145 5.22047 -0.0 -0.0 -0.0 0.0 -0.0 36.2334 27.9075 -18.0497 -70.0572 3.37803 -9.53367 -23.254 -15.5067 -3.52298 17.6741 -0.0 -0.0 0.0 0.0 0.0 
636.589 740.161 -1233.1 173.323 -56.5906 177.08 -5.37223 -0.090333 -0.374788 -5.37215 -0.0663014 -0.379776 -5.37155 0.0509966 -0.382132 -5.37175 -0.00999365 -0.38539 2.59706 5.2546 0.582077 2.66611 8.69431 1.03802 -0.0 0.0 -0.0 6.23976 21.5273 11.4973 -7.27819 -35.5291 58.1898 0.689702 -18.8632 0.114572 -11.7456 -0.558657 1.39134 6.83359 -12.5455 44.8649 -0.0 0.0 -0.0 6.95704 12.0781 -13.2019 -25.8954 58.8395 -30.5002 0.713926 19.4766 -0.122526 -29.3162 1.89307 -3.19268 -11.8129 -31.5492 66.8308 0.0 0.0 0.0 -0.558544 -15.5339 4.54013 -17.1418 0.318715 2.60147 -14.0536 11.7564 2.10778 4.67859 -0.0 -0.0 -0.0 0.0 -0.0 37.9459 24.4757 -17.1016 -66.7624 2.97271 -9.22616 -23.8913 -15.1738 -3.61709 17.9563 -0.0 -0.0 0.0 0.0 0.0 
